<svg viewBox="0 0 1130 170" xmlns="http://www.w3.org/2000/svg"><rect x="0" y="0" width="1130" height="170" fill="white" /><text x="15" y="30" class="small">D0</text><line x1="65" x2="115" y1="15" y2="15" stroke="black" /><line x1="115" x2="120" y1="15" y2="15" stroke="black" /><line x1="120" x2="125.0" y1="15" y2="35" stroke="black" /><line x1="125.0" x2="165" y1="35" y2="35" stroke="black" /><line x1="165" x2="215" y1="35" y2="35" stroke="black" /><line x1="215" x2="265" y1="35" y2="35" stroke="black" /><line x1="265" x2="270" y1="35" y2="35" stroke="black" /><line x1="270" x2="275.0" y1="35" y2="15" stroke="black" /><line x1="275.0" x2="315" y1="15" y2="15" stroke="black" /><line x1="315" x2="365" y1="15" y2="15" stroke="black" /><line x1="365" x2="415" y1="15" y2="15" stroke="black" /><line x1="415" x2="465" y1="15" y2="15" stroke="black" /><line x1="465" x2="470" y1="15" y2="15" stroke="black" /><line x1="470" x2="475.0" y1="15" y2="35" stroke="black" /><line x1="475.0" x2="515" y1="35" y2="35" stroke="black" /><line x1="515" x2="565" y1="35" y2="35" stroke="black" /><line x1="565" x2="615" y1="35" y2="35" stroke="black" /><line x1="615" x2="665" y1="35" y2="35" stroke="black" /><line x1="665" x2="670" y1="35" y2="35" stroke="black" /><line x1="670" x2="675.0" y1="35" y2="15" stroke="black" /><line x1="675.0" x2="715" y1="15" y2="15" stroke="black" /><line x1="715" x2="765" y1="15" y2="15" stroke="black" /><line x1="765" x2="815" y1="15" y2="15" stroke="black" /><line x1="815" x2="865" y1="15" y2="15" stroke="black" /><line x1="865" x2="915" y1="15" y2="15" stroke="black" /><line x1="915" x2="920" y1="15" y2="15" stroke="black" /><line x1="920" x2="925.0" y1="15" y2="35" stroke="black" /><line x1="925.0" x2="965" y1="35" y2="35" stroke="black" /><line x1="965" x2="1015" y1="35" y2="35" stroke="black" /><line x1="1015" x2="1065" y1="35" y2="35" stroke="black" /><line x1="1065" x2="1115" y1="35" y2="35" stroke="black" /><text x="15" y="60" class="small">D1</text><line x1="65" x2="115" y1="65" y2="65" stroke="black" /><line x1="115" x2="120" y1="65" y2="65" stroke="black" /><line x1="120" x2="125.0" y1="65" y2="45" stroke="black" /><line x1="125.0" x2="165" y1="45" y2="45" stroke="black" /><line x1="165" x2="215" y1="45" y2="45" stroke="black" /><line x1="215" x2="265" y1="45" y2="45" stroke="black" /><line x1="265" x2="270" y1="45" y2="45" stroke="black" /><line x1="270" x2="275.0" y1="45" y2="65" stroke="black" /><line x1="275.0" x2="315" y1="65" y2="65" stroke="black" /><line x1="315" x2="320" y1="65" y2="65" stroke="black" /><line x1="320" x2="325.0" y1="65" y2="45" stroke="black" /><line x1="325.0" x2="365" y1="45" y2="45" stroke="black" /><line x1="365" x2="415" y1="45" y2="45" stroke="black" /><line x1="415" x2="465" y1="45" y2="45" stroke="black" /><line x1="465" x2="515" y1="45" y2="45" stroke="black" /><line x1="515" x2="520" y1="45" y2="45" stroke="black" /><line x1="520" x2="525.0" y1="45" y2="65" stroke="black" /><line x1="525.0" x2="565" y1="65" y2="65" stroke="black" /><line x1="565" x2="615" y1="65" y2="65" stroke="black" /><line x1="615" x2="620" y1="65" y2="65" stroke="black" /><line x1="620" x2="625.0" y1="65" y2="45" stroke="black" /><line x1="625.0" x2="665" y1="45" y2="45" stroke="black" /><line x1="665" x2="715" y1="45" y2="45" stroke="black" /><line x1="715" x2="765" y1="45" y2="45" stroke="black" /><line x1="765" x2="815" y1="45" y2="45" stroke="black" /><line x1="815" x2="865" y1="45" y2="45" stroke="black" /><line x1="865" x2="870" y1="45" y2="45" stroke="black" /><line x1="870" x2="875.0" y1="45" y2="65" stroke="black" /><line x1="875.0" x2="915" y1="65" y2="65" stroke="black" /><line x1="915" x2="920" y1="65" y2="65" stroke="black" /><line x1="920" x2="925.0" y1="65" y2="45" stroke="black" /><line x1="925.0" x2="965" y1="45" y2="45" stroke="black" /><line x1="965" x2="1015" y1="45" y2="45" stroke="black" /><line x1="1015" x2="1065" y1="45" y2="45" stroke="black" /><line x1="1065" x2="1115" y1="45" y2="45" stroke="black" /><text x="15" y="90" class="small">D2</text><line x1="65" x2="115" y1="95" y2="95" stroke="black" /><line x1="115" x2="120" y1="95" y2="95" stroke="black" /><line x1="120" x2="125.0" y1="95" y2="75" stroke="black" /><line x1="125.0" x2="165" y1="75" y2="75" stroke="black" /><line x1="165" x2="215" y1="75" y2="75" stroke="black" /><line x1="215" x2="265" y1="75" y2="75" stroke="black" /><line x1="265" x2="315" y1="75" y2="75" stroke="black" /><line x1="315" x2="365" y1="75" y2="75" stroke="black" /><line x1="365" x2="415" y1="75" y2="75" stroke="black" /><line x1="415" x2="465" y1="75" y2="75" stroke="black" /><line x1="465" x2="515" y1="75" y2="75" stroke="black" /><line x1="515" x2="520" y1="75" y2="75" stroke="black" /><line x1="520" x2="525.0" y1="75" y2="95" stroke="black" /><line x1="525.0" x2="565" y1="95" y2="95" stroke="black" /><line x1="565" x2="615" y1="95" y2="95" stroke="black" /><line x1="615" x2="620" y1="95" y2="95" stroke="black" /><line x1="620" x2="625.0" y1="95" y2="75" stroke="black" /><line x1="625.0" x2="665" y1="75" y2="75" stroke="black" /><line x1="665" x2="715" y1="75" y2="75" stroke="black" /><line x1="715" x2="765" y1="75" y2="75" stroke="black" /><line x1="765" x2="815" y1="75" y2="75" stroke="black" /><line x1="815" x2="865" y1="75" y2="75" stroke="black" /><line x1="865" x2="870" y1="75" y2="75" stroke="black" /><line x1="870" x2="875.0" y1="75" y2="95" stroke="black" /><line x1="875.0" x2="915" y1="95" y2="95" stroke="black" /><line x1="915" x2="920" y1="95" y2="95" stroke="black" /><line x1="920" x2="925.0" y1="95" y2="75" stroke="black" /><line x1="925.0" x2="965" y1="75" y2="75" stroke="black" /><line x1="965" x2="1015" y1="75" y2="75" stroke="black" /><line x1="1015" x2="1065" y1="75" y2="75" stroke="black" /><line x1="1065" x2="1115" y1="75" y2="75" stroke="black" /><text x="15" y="120" class="small">D3</text><line x1="65" x2="115" y1="105" y2="105" stroke="black" /><line x1="115" x2="120" y1="105" y2="105" stroke="black" /><line x1="120" x2="125.0" y1="105" y2="125" stroke="black" /><line x1="125.0" x2="165" y1="125" y2="125" stroke="black" /><line x1="165" x2="215" y1="125" y2="125" stroke="black" /><line x1="215" x2="265" y1="125" y2="125" stroke="black" /><line x1="265" x2="270" y1="125" y2="125" stroke="black" /><line x1="270" x2="275.0" y1="125" y2="105" stroke="black" /><line x1="275.0" x2="315" y1="105" y2="105" stroke="black" /><line x1="315" x2="365" y1="105" y2="105" stroke="black" /><line x1="365" x2="415" y1="105" y2="105" stroke="black" /><line x1="415" x2="465" y1="105" y2="105" stroke="black" /><line x1="465" x2="515" y1="105" y2="105" stroke="black" /><line x1="515" x2="520" y1="105" y2="105" stroke="black" /><line x1="520" x2="525.0" y1="105" y2="125" stroke="black" /><line x1="525.0" x2="565" y1="125" y2="125" stroke="black" /><line x1="565" x2="615" y1="125" y2="125" stroke="black" /><line x1="615" x2="620" y1="125" y2="125" stroke="black" /><line x1="620" x2="625.0" y1="125" y2="105" stroke="black" /><line x1="625.0" x2="665" y1="105" y2="105" stroke="black" /><line x1="665" x2="715" y1="105" y2="105" stroke="black" /><line x1="715" x2="765" y1="105" y2="105" stroke="black" /><line x1="765" x2="815" y1="105" y2="105" stroke="black" /><line x1="815" x2="865" y1="105" y2="105" stroke="black" /><line x1="865" x2="870" y1="105" y2="105" stroke="black" /><line x1="870" x2="875.0" y1="105" y2="125" stroke="black" /><line x1="875.0" x2="915" y1="125" y2="125" stroke="black" /><line x1="915" x2="920" y1="125" y2="125" stroke="black" /><line x1="920" x2="925.0" y1="125" y2="105" stroke="black" /><line x1="925.0" x2="965" y1="105" y2="105" stroke="black" /><line x1="965" x2="1015" y1="105" y2="105" stroke="black" /><line x1="1015" x2="1020" y1="105" y2="105" stroke="black" /><line x1="1020" x2="1025.0" y1="105" y2="125" stroke="black" /><line x1="1025.0" x2="1065" y1="125" y2="125" stroke="black" /><line x1="1065" x2="1115" y1="125" y2="125" stroke="black" /><text x="15" y="150" class="small">Data</text><line x1="65" x2="70" y1="135" y2="135" stroke="black" /><line x1="70" x2="75.0" y1="135" y2="155" stroke="black" /><line x1="75.0" x2="115" y1="155" y2="155" stroke="black" /><line x1="65" x2="70" y1="155" y2="155" stroke="black" /><line x1="70" x2="75.0" y1="155" y2="135" stroke="black" /><line x1="75.0" x2="115" y1="135" y2="135" stroke="black" /><text x="80" y="150" class="small">12</text><line x1="115" x2="165" y1="155" y2="155" stroke="black" /><line x1="115" x2="165" y1="135" y2="135" stroke="black" /><line x1="165" x2="170" y1="135" y2="135" stroke="black" /><line x1="170" x2="175.0" y1="135" y2="155" stroke="black" /><line x1="175.0" x2="215" y1="155" y2="155" stroke="black" /><line x1="165" x2="170" y1="155" y2="155" stroke="black" /><line x1="170" x2="175.0" y1="155" y2="135" stroke="black" /><line x1="175.0" x2="215" y1="135" y2="135" stroke="black" /><text x="180" y="150" class="small">13</text><line x1="215" x2="220" y1="135" y2="135" stroke="black" /><line x1="220" x2="225.0" y1="135" y2="155" stroke="black" /><line x1="225.0" x2="265" y1="155" y2="155" stroke="black" /><line x1="215" x2="220" y1="155" y2="155" stroke="black" /><line x1="220" x2="225.0" y1="155" y2="135" stroke="black" /><line x1="225.0" x2="265" y1="135" y2="135" stroke="black" /><text x="230" y="150" class="small">1</text><line x1="265" x2="315" y1="155" y2="155" stroke="black" /><line x1="265" x2="315" y1="135" y2="135" stroke="black" /><line x1="315" x2="365" y1="155" y2="155" stroke="black" /><line x1="315" x2="365" y1="135" y2="135" stroke="black" /><line x1="365" x2="370" y1="135" y2="135" stroke="black" /><line x1="370" x2="375.0" y1="135" y2="155" stroke="black" /><line x1="375.0" x2="415" y1="155" y2="155" stroke="black" /><line x1="365" x2="370" y1="155" y2="155" stroke="black" /><line x1="370" x2="375.0" y1="155" y2="135" stroke="black" /><line x1="375.0" x2="415" y1="135" y2="135" stroke="black" /><text x="380" y="150" class="small">3</text><line x1="415" x2="420" y1="135" y2="135" stroke="black" /><line x1="420" x2="425.0" y1="135" y2="155" stroke="black" /><line x1="425.0" x2="465" y1="155" y2="155" stroke="black" /><line x1="415" x2="420" y1="155" y2="155" stroke="black" /><line x1="420" x2="425.0" y1="155" y2="135" stroke="black" /><line x1="425.0" x2="465" y1="135" y2="135" stroke="black" /><text x="430" y="150" class="small">2</text><line x1="465" x2="470" y1="135" y2="135" stroke="black" /><line x1="470" x2="475.0" y1="135" y2="155" stroke="black" /><line x1="475.0" x2="515" y1="155" y2="155" stroke="black" /><line x1="465" x2="470" y1="155" y2="155" stroke="black" /><line x1="470" x2="475.0" y1="155" y2="135" stroke="black" /><line x1="475.0" x2="515" y1="135" y2="135" stroke="black" /><text x="480" y="150" class="small">1</text><line x1="515" x2="565" y1="155" y2="155" stroke="black" /><line x1="515" x2="565" y1="135" y2="135" stroke="black" /><line x1="565" x2="570" y1="135" y2="135" stroke="black" /><line x1="570" x2="575.0" y1="135" y2="155" stroke="black" /><line x1="575.0" x2="615" y1="155" y2="155" stroke="black" /><line x1="565" x2="570" y1="155" y2="155" stroke="black" /><line x1="570" x2="575.0" y1="155" y2="135" stroke="black" /><line x1="575.0" x2="615" y1="135" y2="135" stroke="black" /><text x="580" y="150" class="small">15</text><line x1="615" x2="665" y1="155" y2="155" stroke="black" /><line x1="615" x2="665" y1="135" y2="135" stroke="black" /><line x1="665" x2="670" y1="135" y2="135" stroke="black" /><line x1="670" x2="675.0" y1="135" y2="155" stroke="black" /><line x1="675.0" x2="715" y1="155" y2="155" stroke="black" /><line x1="665" x2="670" y1="155" y2="155" stroke="black" /><line x1="670" x2="675.0" y1="155" y2="135" stroke="black" /><line x1="675.0" x2="715" y1="135" y2="135" stroke="black" /><text x="680" y="150" class="small">0</text><line x1="715" x2="720" y1="135" y2="135" stroke="black" /><line x1="720" x2="725.0" y1="135" y2="155" stroke="black" /><line x1="725.0" x2="765" y1="155" y2="155" stroke="black" /><line x1="715" x2="720" y1="155" y2="155" stroke="black" /><line x1="720" x2="725.0" y1="155" y2="135" stroke="black" /><line x1="725.0" x2="765" y1="135" y2="135" stroke="black" /><text x="730" y="150" class="small">1</text><line x1="765" x2="770" y1="135" y2="135" stroke="black" /><line x1="770" x2="775.0" y1="135" y2="155" stroke="black" /><line x1="775.0" x2="815" y1="155" y2="155" stroke="black" /><line x1="765" x2="770" y1="155" y2="155" stroke="black" /><line x1="770" x2="775.0" y1="155" y2="135" stroke="black" /><line x1="775.0" x2="815" y1="135" y2="135" stroke="black" /><text x="780" y="150" class="small">2</text><line x1="815" x2="820" y1="135" y2="135" stroke="black" /><line x1="820" x2="825.0" y1="135" y2="155" stroke="black" /><line x1="825.0" x2="865" y1="155" y2="155" stroke="black" /><line x1="815" x2="820" y1="155" y2="155" stroke="black" /><line x1="820" x2="825.0" y1="155" y2="135" stroke="black" /><line x1="825.0" x2="865" y1="135" y2="135" stroke="black" /><text x="830" y="150" class="small">3</text><line x1="865" x2="870" y1="135" y2="135" stroke="black" /><line x1="870" x2="875.0" y1="135" y2="155" stroke="black" /><line x1="875.0" x2="915" y1="155" y2="155" stroke="black" /><line x1="865" x2="870" y1="155" y2="155" stroke="black" /><line x1="870" x2="875.0" y1="155" y2="135" stroke="black" /><line x1="875.0" x2="915" y1="135" y2="135" stroke="black" /><text x="880" y="150" class="small">4</text><line x1="915" x2="920" y1="135" y2="135" stroke="black" /><line x1="920" x2="925.0" y1="135" y2="155" stroke="black" /><line x1="925.0" x2="965" y1="155" y2="155" stroke="black" /><line x1="915" x2="920" y1="155" y2="155" stroke="black" /><line x1="920" x2="925.0" y1="155" y2="135" stroke="black" /><line x1="925.0" x2="965" y1="135" y2="135" stroke="black" /><text x="930" y="150" class="small">5</text><line x1="965" x2="970" y1="135" y2="135" stroke="black" /><line x1="970" x2="975.0" y1="135" y2="155" stroke="black" /><line x1="975.0" x2="1015" y1="155" y2="155" stroke="black" /><line x1="965" x2="970" y1="155" y2="155" stroke="black" /><line x1="970" x2="975.0" y1="155" y2="135" stroke="black" /><line x1="975.0" x2="1015" y1="135" y2="135" stroke="black" /><text x="980" y="150" class="small">6</text><line x1="1015" x2="1020" y1="135" y2="135" stroke="black" /><line x1="1020" x2="1025.0" y1="135" y2="155" stroke="black" /><line x1="1025.0" x2="1065" y1="155" y2="155" stroke="black" /><line x1="1015" x2="1020" y1="155" y2="155" stroke="black" /><line x1="1020" x2="1025.0" y1="155" y2="135" stroke="black" /><line x1="1025.0" x2="1065" y1="135" y2="135" stroke="black" /><text x="1030" y="150" class="small">7</text><line x1="1065" x2="1070" y1="135" y2="135" stroke="black" /><line x1="1070" x2="1075.0" y1="135" y2="155" stroke="black" /><line x1="1075.0" x2="1115" y1="155" y2="155" stroke="black" /><line x1="1065" x2="1070" y1="155" y2="155" stroke="black" /><line x1="1070" x2="1075.0" y1="155" y2="135" stroke="black" /><line x1="1075.0" x2="1115" y1="135" y2="135" stroke="black" /><text x="1080" y="150" class="small">8</text></svg>
